<?xml version="1.0" encoding="UTF-8"?>
<svg width="80" height="80" viewBox="0 0 80 80" fill="none" xmlns="http://www.w3.org/2000/svg">
  <!-- 背景円 -->
  <circle cx="40" cy="40" r="35" fill="#00B2FF" opacity="0.1"/>
  
  <!-- 左側のフィン -->
  <g transform="translate(-16, 0)">
    <!-- フィンの形状 - まっすぐで先端が左右対称に広がる形状 -->
    <path d="M32 14H48C48 14 52 18 52 30V45L58 62C59 64 55 66 40 66C25 66 21 64 22 62L28 45V30C28 18 32 14 32 14Z" fill="#003366" stroke="#002244" stroke-width="1"/>
    
    <!-- 足の部分（内側・さらに細くなった足首） -->
    <path d="M35 14C35 14 37 16 40 16C43 16 45 14 45 14V17C45 17 43 18 40 18C37 18 35 17 35 17V14Z" fill="#002855" stroke="#002244" stroke-width="0.8"/>
    
    <!-- 足の部分（足裏） -->
    <path d="M35 17C35 17 37 18 40 18C43 18 45 17 45 17V25C45 27 43 29 40 29C37 29 35 27 35 25V17Z" fill="#002855" stroke="#002244" stroke-width="0.8"/>
    
    <!-- フィンの模様 - 中央ライン -->
    <path d="M40 29V60" stroke="#002244" stroke-width="0.5"/>
    
    <!-- フィンの模様 - サイドライン（まっすぐ） -->
    <path d="M35 29L28 60" stroke="#002244" stroke-width="0.5" fill="none"/>
    <path d="M45 29L52 60" stroke="#002244" stroke-width="0.5" fill="none"/>
    
    <!-- 足の部分のディテール -->
    <path d="M35 20H45" stroke="#002244" stroke-width="0.5"/>
    <path d="M35 22H45" stroke="#002244" stroke-width="0.5"/>
    <path d="M35 24H45" stroke="#002244" stroke-width="0.5"/>
    
    <!-- ストラップ部分（足首に合わせて調整） -->
    <path d="M33 17C31 17 29 19 28 21" stroke="#222222" stroke-width="1.5" stroke-linecap="round"/>
    <path d="M47 17C49 17 51 19 52 21" stroke="#222222" stroke-width="1.5" stroke-linecap="round"/>
    
    <!-- GULLロゴの簡略版 -->
    <rect x="38" y="32" width="4" height="3" rx="0.5" fill="#FFFFFF" stroke="#002244" stroke-width="0.3"/>
    <path d="M39 33.5H41" stroke="#002244" stroke-width="0.5"/>
  </g>
  
  <!-- 右側のフィン -->
  <g transform="translate(16, 0)">
    <!-- フィンの形状 - まっすぐで先端が左右対称に広がる形状 -->
    <path d="M32 14H48C48 14 52 18 52 30V45L58 62C59 64 55 66 40 66C25 66 21 64 22 62L28 45V30C28 18 32 14 32 14Z" fill="#003366" stroke="#002244" stroke-width="1"/>
    
    <!-- 足の部分（内側・さらに細くなった足首） -->
    <path d="M35 14C35 14 37 16 40 16C43 16 45 14 45 14V17C45 17 43 18 40 18C37 18 35 17 35 17V14Z" fill="#002855" stroke="#002244" stroke-width="0.8"/>
    
    <!-- 足の部分（足裏） -->
    <path d="M35 17C35 17 37 18 40 18C43 18 45 17 45 17V25C45 27 43 29 40 29C37 29 35 27 35 25V17Z" fill="#002855" stroke="#002244" stroke-width="0.8"/>
    
    <!-- フィンの模様 - 中央ライン -->
    <path d="M40 29V60" stroke="#002244" stroke-width="0.5"/>
    
    <!-- フィンの模様 - サイドライン（まっすぐ） -->
    <path d="M35 29L28 60" stroke="#002244" stroke-width="0.5" fill="none"/>
    <path d="M45 29L52 60" stroke="#002244" stroke-width="0.5" fill="none"/>
    
    <!-- 足の部分のディテール -->
    <path d="M35 20H45" stroke="#002244" stroke-width="0.5"/>
    <path d="M35 22H45" stroke="#002244" stroke-width="0.5"/>
    <path d="M35 24H45" stroke="#002244" stroke-width="0.5"/>
    
    <!-- ストラップ部分（足首に合わせて調整） -->
    <path d="M33 17C31 17 29 19 28 21" stroke="#222222" stroke-width="1.5" stroke-linecap="round"/>
    <path d="M47 17C49 17 51 19 52 21" stroke="#222222" stroke-width="1.5" stroke-linecap="round"/>
    
    <!-- GULLロゴの簡略版 -->
    <rect x="38" y="32" width="4" height="3" rx="0.5" fill="#FFFFFF" stroke="#002244" stroke-width="0.3"/>
    <path d="M39 33.5H41" stroke="#002244" stroke-width="0.5"/>
  </g>
</svg>