<?xml version="1.0" encoding="UTF-8"?>
<svg width="600" height="800" viewBox="0 0 600 800" fill="none" xmlns="http://www.w3.org/2000/svg">
  <!-- 背景グラデーション（縦長：モバイル向け） -->
  <rect width="600" height="800" fill="url(#ocean_gradient_mobile)"/>
  
  <!-- 波のパターン -->
  <path d="M0 600C50 550 100 650 150 600C200 550 250 650 300 600C350 550 400 650 450 600C500 550 550 650 600 600V800H0V600Z" fill="#ffffff" fill-opacity="0.2"/>
  <path d="M0 650C50 600 100 700 150 650C200 600 250 700 300 650C350 600 400 700 450 650C500 600 550 700 600 650V800H0V650Z" fill="#ffffff" fill-opacity="0.3"/>
  
  <!-- 太陽の光 -->
  <circle cx="450" cy="150" r="80" fill="#ffffff" fill-opacity="0.2"/>
  <circle cx="450" cy="150" r="60" fill="#ffffff" fill-opacity="0.3"/>
  
  <!-- スキンダイバーのシルエット（縦長の構図） -->
  <path d="M200 350C205 320 210 330 215 340C225 320 230 340 235 360C240 350 245 360 250 380C260 370 265 390 270 420C275 410 280 430 285 450C287.5 440 290 450 292.5 460C300 450 305 470 310 500C315 490 320 510 325 530C327.5 520 330 530 332.5 540C340 530 345 550 350 580C350 580 340 600 325 610C310 620 300 600 285 590C270 580 260 600 245 610C230 620 220 600 205 590C190 580 180 600 165 610C150 620 140 600 125 590C110 580 100 600 85 610C70 620 60 600 45 590C30 580 20 600 5 610L5 800L600 800L600 610C585 600 575 620 560 610C545 600 535 580 520 590C505 600 495 620 480 610C465 600 455 580 440 590C425 600 415 620 400 610C395 605 392.5 600 390 590C380 600 370 620 355 610C340 600 330 580 315 590C300 600 290 620 275 610C260 600 250 580 235 590C220 600 210 620 195 610C180 600 170 580 155 590C140 600 130 620 115 610C100 600 90 580 75 590C60 600 50 620 35 610C20 600 10 580 0 590L0.0001 800L600 800L600 780C600 780 590 720 575 710C560 700 550 740 535 730C520 720 510 680 495 690C480 700 470 740 455 730C440 720 430 680 415 690C400 700 390 740 375 730C360 720 350 680 335 690C320 700 310 740 295 730C280 720 270 680 255 690C240 700 230 740 215 730C200 720 190 680 175 690C160 700 150 740 135 730C120 720 110 680 95 690C80 700 70 740 55 730C40 720 30 680 15 690C0 700 0 680 0 680L0.0001 800L600 800L600 800L0.0001 800L0.0001 680Z" fill="#004080" fill-opacity="0.7"/>
  
  <!-- 定義 -->
  <defs>
    <linearGradient id="ocean_gradient_mobile" x1="0" y1="0" x2="0" y2="800" gradientUnits="userSpaceOnUse">
      <stop offset="0" stop-color="#00B2FF"/>
      <stop offset="0.7" stop-color="#005F99"/>
      <stop offset="1" stop-color="#003A66"/>
    </linearGradient>
  </defs>
</svg>