<?xml version="1.0" encoding="UTF-8"?>
<svg width="1200" height="600" viewBox="0 0 1200 600" fill="none" xmlns="http://www.w3.org/2000/svg">
  <!-- 背景グラデーション -->
  <rect width="1200" height="600" fill="url(#ocean_gradient)"/>
  
  <!-- 波のパターン -->
  <path d="M0 400C100 350 200 450 300 400C400 350 500 450 600 400C700 350 800 450 900 400C1000 350 1100 450 1200 400V600H0V400Z" fill="#ffffff" fill-opacity="0.2"/>
  <path d="M0 450C100 400 200 500 300 450C400 400 500 500 600 450C700 400 800 500 900 450C1000 400 1100 500 1200 450V600H0V450Z" fill="#ffffff" fill-opacity="0.3"/>
  
  <!-- 太陽の光 -->
  <circle cx="900" cy="100" r="80" fill="#ffffff" fill-opacity="0.2"/>
  <circle cx="900" cy="100" r="60" fill="#ffffff" fill-opacity="0.3"/>
  
  <!-- スキンダイバーのシルエット -->
  <path d="M400 250C410 220 420 230 430 240C450 220 460 240 470 260C480 250 490 260 500 280C520 270 530 290 540 320C550 310 560 330 570 350C575 340 580 350 585 360C600 350 610 370 620 400C630 390 640 410 650 430C655 420 660 430 665 440C680 430 690 450 700 480C700 480 680 500 650 510C620 520 600 500 570 490C540 480 520 500 490 510C460 520 440 500 410 490C380 480 360 500 330 510C300 520 280 500 250 490C220 480 200 500 170 510C140 520 120 500 90 490C60 480 40 500 10 510L10 600L1200 600L1200 510C1170 500 1150 520 1120 510C1090 500 1070 480 1040 490C1010 500 990 520 960 510C930 500 910 480 880 490C850 500 830 520 800 510C790 505 785 500 780 490C760 500 740 520 710 510C680 500 660 480 630 490C600 500 580 520 550 510C520 500 500 480 470 490C440 500 420 520 390 510C360 500 340 480 310 490C280 500 260 520 230 510C200 500 180 480 150 490C120 500 100 520 70 510C40 500 20 480 0 490L0.0001 600L1200 600L1200 580C1200 580 1180 520 1150 510C1120 500 1100 540 1070 530C1040 520 1020 480 990 490C960 500 940 540 910 530C880 520 860 480 830 490C800 500 780 540 750 530C720 520 700 480 670 490C640 500 620 540 590 530C560 520 540 480 510 490C480 500 460 540 430 530C400 520 380 480 350 490C320 500 300 540 270 530C240 520 220 480 190 490C160 500 140 540 110 530C80 520 60 480 30 490C0 500 0 480 0 480L0.0001 600L1200 600L1200 600L0.0001 600L0.0001 480Z" fill="#004080" fill-opacity="0.7"/>
  
  <!-- 定義 -->
  <defs>
    <linearGradient id="ocean_gradient" x1="0" y1="0" x2="0" y2="600" gradientUnits="userSpaceOnUse">
      <stop offset="0" stop-color="#00B2FF"/>
      <stop offset="0.7" stop-color="#005F99"/>
      <stop offset="1" stop-color="#003A66"/>
    </linearGradient>
  </defs>
</svg>