<?xml version="1.0" encoding="UTF-8"?>
<svg width="200" height="60" viewBox="0 0 200 60" fill="none" xmlns="http://www.w3.org/2000/svg">
  <!-- 波の背景 -->
  <path d="M0 30C20 10 40 50 60 30C80 10 100 50 120 30C140 10 160 50 180 30C200 10 220 50 240 30V60H0V30Z" fill="#005F99" opacity="0.2"/>
  <!-- メインのロゴテキスト -->
  <text x="10" y="35" font-family="Arial, sans-serif" font-weight="bold" font-size="24" fill="#005F99">SKIN DIVING LP</text>
  <!-- 小さなダイビングアイコン -->
  <circle cx="175" cy="25" r="15" fill="#00B2FF" opacity="0.8"/>
  <path d="M175 15C172 15 170 18 170 20C170 22 172 25 175 25C178 25 180 22 180 20C180 18 178 15 175 15Z" fill="white"/>
  <path d="M175 25L175 35" stroke="white" stroke-width="2"/>
  <path d="M170 30L180 30" stroke="white" stroke-width="2"/>
</svg>