<?xml version="1.0" encoding="UTF-8"?>
<svg width="80" height="80" viewBox="0 0 80 80" fill="none" xmlns="http://www.w3.org/2000/svg">
  <!-- 背景円 -->
  <circle cx="40" cy="40" r="35" fill="#00B2FF" opacity="0.1"/>
  
  <!-- マスクのフレーム部分 -->
  <path d="M15 30C15 25 25 15 40 15C55 15 65 25 65 30V35C65 38 60 45 50 48C45 49 35 49 30 48C20 45 15 38 15 35V30Z" fill="#333333" stroke="#222222" stroke-width="1.5"/>
  
  <!-- パープルのアクセント部分 -->
  <path d="M18 30C18 26 27 18 40 18C53 18 62 26 62 30V35C62 37 58 43 50 45C45 46 35 46 30 45C22 43 18 37 18 35V30Z" fill="none" stroke="#9966CC" stroke-width="1.5"/>
  
  <!-- 一体型レンズ -->
  <path d="M22 30C22 28 30 22 40 22C50 22 58 28 58 30V34C58 35 50 41 40 41C30 41 22 35 22 34V30Z" fill="#FFFFFF" opacity="0.9" stroke="#CCCCCC" stroke-width="0.8"/>
  
  <!-- 鼻部分 -->
  <path d="M35 40L40 45L45 40" fill="#333333" stroke="#222222" stroke-width="1"/>
  <path d="M37 40H43V45C43 46 37 46 37 45V40Z" fill="#333333" stroke="#222222" stroke-width="0.8"/>
  
  <!-- マスクのストラップ - 横に出ている部分 -->
  <path d="M65 30C67 30 70 33 72 35" stroke="#333333" stroke-width="2" stroke-linecap="round"/>
  <path d="M15 30C13 30 10 33 8 35" stroke="#333333" stroke-width="2" stroke-linecap="round"/>
  
  <!-- ストラップの調整バックル -->
  <rect x="73" y="34" width="3" height="2" rx="1" fill="#9966CC" stroke="#000000" stroke-width="0.5"/>
  <rect x="4" y="34" width="3" height="2" rx="1" fill="#9966CC" stroke="#000000" stroke-width="0.5"/>
  
  <!-- レンズの反射 -->
  <path d="M35 27C35 26 38 25 41 25C44 25 47 26 47 27C47 28 44 29 41 29C38 29 35 28 35 27Z" fill="#FFFFFF" opacity="0.4"/>
</svg>