<?xml version="1.0" encoding="UTF-8"?>
<svg width="200" height="200" viewBox="0 0 200 200" fill="none" xmlns="http://www.w3.org/2000/svg">
  <!-- 背景円 -->
  <circle cx="100" cy="100" r="100" fill="#FFE6F3"/>
  
  <!-- 顔の輪郭 -->
  <circle cx="100" cy="90" r="50" fill="#FFDBB7"/>
  
  <!-- 髪 -->
  <path d="M55 60C55 60 60 40 100 40C140 40 145 60 145 60L150 100C150 100 130 90 100 90C70 90 50 100 50 100L55 60Z" fill="#663300"/>
  <path d="M60 55C60 55 80 45 100 45C120 45 140 55 140 55" stroke="#331800" stroke-width="5"/>
  
  <!-- 目 -->
  <ellipse cx="80" cy="85" rx="5" ry="7" fill="#333333"/>
  <ellipse cx="120" cy="85" rx="5" ry="7" fill="#333333"/>
  
  <!-- 眉毛 -->
  <path d="M75 75C75 75 80 70 85 75" stroke="#333333" stroke-width="2" stroke-linecap="round"/>
  <path d="M115 75C115 75 120 70 125 75" stroke="#333333" stroke-width="2" stroke-linecap="round"/>
  
  <!-- 鼻 -->
  <path d="M100 90L95 100L105 100Z" fill="#FFBBAA"/>
  
  <!-- 口 -->
  <path d="M90 105C90 105 95 115 110 105" stroke="#CC6666" stroke-width="2" stroke-linecap="round"/>
  
  <!-- 肩 -->
  <path d="M70 150C70 150 85 140 100 140C115 140 130 150 130 150" stroke="#FF6699" stroke-width="30" stroke-linecap="round"/>
  
  <!-- マスク -->
  <path d="M60 165C60 165 85 180 100 180C115 180 140 165 140 165" stroke="#FF99CC" stroke-width="10" stroke-linecap="round"/>
</svg>